<?xml version="1.0" encoding="utf-8"?>
<!-- Generator: Adobe Illustrator 16.0.0, SVG Export Plug-In . SVG Version: 6.00 Build 0)  -->
<!DOCTYPE svg PUBLIC "-//W3C//DTD SVG 1.0//EN" "http://www.w3.org/TR/2001/REC-SVG-20010904/DTD/svg10.dtd">
<svg version="1.0" id="Capa_1" xmlns="http://www.w3.org/2000/svg" xmlns:xlink="http://www.w3.org/1999/xlink" x="0px" y="0px"
	 width="290px" height="274px" viewBox="0 0 290 274" enable-background="new 0 0 290 274" xml:space="preserve">
<g>
	<g display="none">
		<g display="inline">
			<path fill="#93D8D0" d="M267.038,11.911l-24.469-5.693L218.1,0.525c0,0-9.781,39.255,12.57,56.841
				C258.488,51.452,267.038,11.911,267.038,11.911z"/>
		</g>
		<g display="inline">
			<path fill="#231F20" d="M250.183,23.545c-0.581,0-1.166-0.066-1.746-0.202c-1.988-0.462-3.677-1.671-4.755-3.404
				c-0.293-0.469-0.149-1.085,0.32-1.377c0.469-0.292,1.085-0.148,1.377,0.32c0.796,1.279,2.043,2.172,3.511,2.514
				c1.468,0.341,2.98,0.091,4.26-0.706c0.47-0.292,1.086-0.148,1.378,0.321c0.291,0.469,0.148,1.085-0.32,1.377
				C252.979,23.151,251.594,23.545,250.183,23.545z"/>
		</g>
		<g display="inline">
			<path fill="#231F20" d="M231.108,19.107c-0.581,0-1.166-0.066-1.745-0.202c-1.988-0.462-3.678-1.671-4.756-3.404
				c-0.292-0.469-0.148-1.085,0.32-1.377s1.086-0.148,1.377,0.32c0.797,1.279,2.043,2.172,3.512,2.514
				c1.467,0.341,2.98,0.091,4.259-0.706c0.47-0.292,1.086-0.148,1.378,0.321c0.292,0.469,0.148,1.085-0.32,1.377
				C233.905,18.714,232.52,19.107,231.108,19.107z"/>
		</g>
		<g display="inline">
			<path fill="#231F20" d="M245.678,39.524c-0.301,0-0.598-0.135-0.795-0.392c-2.036-2.657-5.13-4.58-8.712-5.413
				c-3.582-0.833-7.206-0.474-10.206,1.012c-0.495,0.245-1.096,0.042-1.34-0.453c-0.245-0.495-0.043-1.095,0.452-1.339
				c3.414-1.691,7.515-2.106,11.547-1.168c4.032,0.938,7.528,3.12,9.846,6.145c0.336,0.438,0.253,1.066-0.186,1.402
				C246.104,39.457,245.889,39.524,245.678,39.524z"/>
		</g>
	</g>
	<g display="none">
		
			<rect x="-59.59" y="153.176" transform="matrix(0.5384 0.8427 -0.8427 0.5384 161.827 11.7413)" display="inline" fill="#F42A68" width="259.574" height="0.8"/>
	</g>
	<g display="none">
		<rect x="0.325" y="43.73" display="inline" fill="#F42A68" width="267.687" height="0.8"/>
	</g>
	<g display="none">
		
			<rect x="203.64" y="26.735" transform="matrix(0.8632 0.5048 -0.5048 0.8632 105.3892 -82.0033)" display="inline" fill="#2BE0C1" width="0.801" height="253.54"/>
	</g>
	<g>
		<g>
			<path fill="#93D8D0" d="M241.43,110.119c-0.79-0.456-1.763-0.456-2.552,0l-33.544,19.367v-12.46
				c0-11.376-9.256-20.632-20.633-20.632h-25.547c12.361-5.218,21.036-17.451,21.036-31.71c0-19.001-15.403-34.405-34.404-34.405
				c-19.001,0-34.405,15.403-34.405,34.405c0,14.259,8.676,26.493,21.036,31.71h-34.51c8.215-4.15,13.848-12.666,13.848-22.498
				c0-13.913-11.279-25.192-25.191-25.192c-13.913,0-25.192,11.279-25.192,25.192c0,9.832,5.633,18.347,13.847,22.498H56.487
				c-11.377,0-20.632,9.255-20.632,20.632v1.123H21.035c-1.409,0-2.551,1.142-2.551,2.551v60.932c0,1.408,1.142,2.551,2.551,2.551
				h14.819v1.123c0,11.376,9.255,20.632,20.632,20.632h59.133h9.948h59.133c11.377,0,20.633-9.256,20.633-20.632v-12.46
				l33.544,19.367c0.395,0.228,0.835,0.342,1.275,0.342s0.881-0.114,1.276-0.342c0.789-0.456,1.274-1.298,1.274-2.209v-77.676
				C242.704,111.417,242.219,110.575,241.43,110.119z M172.885,123.251h-15.676c-1.408,0-2.551-1.142-2.551-2.551
				c0-1.409,1.143-2.551,2.551-2.551h15.676c1.408,0,2.551,1.142,2.551,2.551C175.436,122.109,174.293,123.251,172.885,123.251z"/>
		</g>
		<g>
			<path fill="#F42A68" d="M249.967,110.119c-0.789-0.456-1.762-0.456-2.552,0l-33.544,19.367v-12.46
				c0-11.376-9.256-20.632-20.633-20.632h-25.547c12.361-5.218,21.036-17.451,21.036-31.71c0-19.001-15.403-34.405-34.404-34.405
				s-34.405,15.403-34.405,34.405c0,14.259,8.675,26.493,21.036,31.71h-34.509c8.214-4.15,13.847-12.666,13.847-22.498
				c0-13.913-11.278-25.192-25.191-25.192S69.909,59.984,69.909,73.897c0,9.832,5.633,18.347,13.847,22.498H65.024
				c-11.376,0-20.632,9.255-20.632,20.632v1.123H29.572c-1.409,0-2.551,1.142-2.551,2.551v60.932c0,1.408,1.142,2.551,2.551,2.551
				h14.819v1.123c0,11.376,9.256,20.632,20.632,20.632h128.214c11.377,0,20.633-9.256,20.633-20.632v-12.46l33.544,19.367
				c0.396,0.228,0.835,0.342,1.275,0.342s0.881-0.114,1.276-0.342c0.789-0.456,1.274-1.298,1.274-2.209v-77.676
				C251.241,111.417,250.756,110.575,249.967,110.119z"/>
		</g>
		<g>
			<g>
				<path fill="#231F20" d="M117.838,84.747c1.571-3.286,2.454-6.965,2.454-10.85c0-7.135-2.967-13.577-7.733-18.16
					c-0.767,2.853-1.178,5.852-1.178,8.947C111.381,72.172,113.776,79.099,117.838,84.747z"/>
			</g>
			<g>
				<path fill="#231F20" d="M213.871,129.486v-4.929l-8.537,4.929v-12.46c0-11.376-9.256-20.632-20.633-20.632h-25.547
					c12.361-5.218,21.036-17.451,21.036-31.71c0-17.556-13.149-32.039-30.136-34.141c-16.987,2.103-30.136,16.585-30.136,34.141
					c0,14.259,8.675,26.493,21.036,31.71H97.907c8.215-4.15,13.848-12.666,13.848-22.498c0-12.458-9.043-22.802-20.923-24.83
					c-11.88,2.027-20.923,12.372-20.923,24.83c0,9.832,5.633,18.347,13.847,22.498H65.024c-11.376,0-20.632,9.255-20.632,20.632
					v1.123H29.572c-1.409,0-2.551,1.142-2.551,2.551v60.932c0,1.408,1.142,2.551,2.551,2.551h14.819v1.123
					c0,11.376,9.256,20.632,20.632,20.632h119.677c11.377,0,20.633-9.256,20.633-20.632v-12.46l8.537,4.93v-4.93l28.833,16.647
					v-76.654L213.871,129.486z"/>
			</g>
		</g>
	</g>
	<g display="none">
		<g display="inline">
			<polygon fill="#231F20" points="93.565,247.167 118.267,222.555 119.5,229.797 112.424,243.955 			"/>
		</g>
		<g display="inline">
			<polygon fill="#231F20" points="179.641,232.507 148.185,217.459 149.418,224.701 160.782,235.719 			"/>
		</g>
		<g display="inline">
			<path fill="#231F20" d="M178.587,232.686l-35.673,6.076l-2.562,0.437l-7.216,1.229l-1.181,0.201l-37.054,6.311
				c-1.763,0.3-2.948,1.973-2.648,3.734l2.593,15.222c0.742,4.358,4.876,7.289,9.234,6.547l25.645-4.368
				c4.358-0.742,7.289-4.877,6.547-9.234l-1.637-9.611l7.216-1.229l1.637,9.61c0.742,4.358,4.877,7.289,9.234,6.547l25.646-4.368
				c4.357-0.742,7.288-4.876,6.546-9.234l-2.592-15.221C182.021,233.571,180.35,232.386,178.587,232.686z"/>
		</g>
		<g display="inline">
			<path fill="#93D8D0" d="M103.171,267.097c-1.404,0.239-2.74-0.708-2.979-2.111l-2.226-13.067l30.736-5.235l2.226,13.067
				c0.239,1.404-0.708,2.74-2.112,2.979L103.171,267.097z"/>
		</g>
		<g display="inline">
			<path fill="#F42A68" d="M151.813,258.813c-1.403,0.238-2.739-0.709-2.979-2.112l-2.226-13.067l30.735-5.234l2.226,13.066
				c0.239,1.404-0.708,2.74-2.112,2.979L151.813,258.813z"/>
		</g>
	</g>
	<g display="none">
		
			<rect x="199.681" y="4.427" transform="matrix(0.4921 0.8706 -0.8706 0.4921 173.4157 -132.2982)" display="inline" fill="#2BE0C1" width="0.8" height="156.066"/>
	</g>
	<g display="none">
		<g display="inline">
			<g>
				<path fill="#F42A68" d="M288.82,54.871l-19.477-15.867l-19.479-15.868c0,0-26.037,30.962-13.689,56.582
					C263.763,86.631,288.82,54.871,288.82,54.871z"/>
			</g>
			<g>
				<path fill="#FFFFFF" d="M256.176,47.787c-0.506,0-0.94-0.384-0.993-0.898c-0.153-1.499-0.881-2.849-2.05-3.801
					c-1.168-0.952-2.637-1.392-4.136-1.238c-0.55,0.057-1.04-0.344-1.097-0.894c-0.057-0.549,0.344-1.04,0.894-1.096
					c2.03-0.208,4.021,0.388,5.603,1.677s2.568,3.118,2.775,5.148c0.057,0.549-0.344,1.04-0.893,1.096
					C256.244,47.785,256.21,47.787,256.176,47.787z"/>
			</g>
			<g>
				<path fill="#FFFFFF" d="M271.358,60.156c-0.507,0-0.94-0.383-0.993-0.898c-0.153-1.499-0.881-2.849-2.049-3.8
					c-1.168-0.952-2.637-1.393-4.137-1.239c-0.55,0.057-1.04-0.344-1.097-0.893c-0.056-0.55,0.345-1.041,0.894-1.097
					c2.031-0.208,4.021,0.389,5.603,1.678c1.583,1.289,2.568,3.117,2.775,5.148c0.057,0.549-0.343,1.04-0.894,1.096
					C271.428,60.154,271.393,60.156,271.358,60.156z"/>
			</g>
			<g>
				<path fill="#FFFFFF" d="M260.096,67.654c-3.787,0-7.623-1.428-10.813-4.026c-3.209-2.614-5.392-6.111-6.144-9.847
					c-0.108-0.541,0.242-1.068,0.783-1.177s1.068,0.241,1.178,0.783c0.661,3.282,2.596,6.368,5.446,8.69
					c2.833,2.309,6.223,3.577,9.55,3.577c0.022,0,0.045,0,0.067,0c0.55,0,0.997,0.444,1,0.995c0.003,0.553-0.443,1.002-0.995,1.005
					C260.144,67.654,260.119,67.654,260.096,67.654z"/>
			</g>
		</g>
	</g>
	<g display="none">
		
			<rect x="64.954" y="191.505" transform="matrix(0.0556 0.9985 -0.9985 0.0556 320.1442 45.3292)" display="inline" fill="#F42A68" width="142.311" height="0.8"/>
	</g>
	<g display="none">
		
			<rect x="-10.009" y="82.131" transform="matrix(0.8645 0.5027 -0.5027 0.8645 50.4654 -22.1115)" display="inline" fill="#F42A68" width="152.494" height="0.8"/>
	</g>
</g>
<g>
	<path fill="#93D8D0" d="M165.857,133.626h5.45v28.908h-5.45V133.626z"/>
	<path fill="#93D8D0" d="M182.572,138.794v6.702h11.587v5.168h-11.587v6.702h12.879v5.168h-18.33v-28.908h18.33v5.168H182.572z"/>
	<path fill="#93D8D0" d="M209.3,163.18c-1.238,0-2.423-0.175-3.554-0.524c-1.13-0.35-2.166-0.874-3.108-1.574
		s-1.764-1.555-2.463-2.564c-0.7-1.009-1.252-2.187-1.655-3.532l5.128-2.019c0.376,1.453,1.035,2.658,1.978,3.613
		c0.942,0.956,2.181,1.434,3.715,1.434c0.565,0,1.11-0.074,1.635-0.223c0.525-0.147,0.996-0.363,1.414-0.646
		c0.417-0.283,0.746-0.64,0.988-1.07c0.243-0.431,0.364-0.929,0.364-1.494c0-0.538-0.095-1.022-0.283-1.453
		s-0.505-0.834-0.948-1.211c-0.444-0.377-1.023-0.74-1.736-1.091c-0.714-0.35-1.595-0.713-2.645-1.09l-1.776-0.646
		c-0.781-0.27-1.568-0.633-2.362-1.091c-0.794-0.457-1.514-1.009-2.16-1.655c-0.646-0.646-1.178-1.406-1.595-2.281
		c-0.418-0.874-0.626-1.863-0.626-2.967c0-1.131,0.223-2.188,0.666-3.17c0.444-0.982,1.077-1.843,1.898-2.584
		c0.82-0.74,1.803-1.318,2.947-1.736c1.144-0.417,2.415-0.626,3.815-0.626c1.453,0,2.711,0.195,3.774,0.585
		c1.063,0.391,1.965,0.888,2.705,1.494c0.74,0.606,1.339,1.272,1.797,1.999c0.457,0.727,0.794,1.413,1.01,2.06l-4.805,2.019
		c-0.27-0.808-0.761-1.534-1.474-2.181c-0.714-0.646-1.689-0.969-2.928-0.969c-1.185,0-2.167,0.276-2.947,0.828
		s-1.171,1.271-1.171,2.16c0,0.861,0.377,1.595,1.131,2.2c0.753,0.605,1.951,1.19,3.593,1.756l1.817,0.605
		c1.157,0.404,2.214,0.868,3.169,1.394c0.955,0.524,1.777,1.15,2.463,1.877c0.687,0.727,1.212,1.555,1.575,2.483
		s0.545,1.998,0.545,3.21c0,1.508-0.303,2.806-0.908,3.896c-0.605,1.091-1.38,1.985-2.322,2.686s-2.005,1.225-3.189,1.574
		S210.43,163.18,209.3,163.18z"/>
</g>
<g>
	<path fill="#93D8D0" d="M38.755,133.626h5.37l8.842,15.302h0.323l8.842-15.302h5.41v28.908h-5.41v-14.252l0.323-4.846h-0.323
		l-7.348,12.961h-3.27l-7.389-12.961h-0.323l0.323,4.846v14.252h-5.37V133.626z"/>
	<path fill="#93D8D0" d="M86.64,163.18c-2.153,0-4.152-0.39-5.996-1.17c-1.844-0.781-3.438-1.851-4.784-3.21
		c-1.346-1.359-2.402-2.961-3.169-4.805s-1.151-3.815-1.151-5.915s0.384-4.071,1.151-5.915c0.767-1.843,1.823-3.444,3.169-4.804
		c1.346-1.359,2.94-2.429,4.784-3.21c1.844-0.78,3.842-1.171,5.996-1.171s4.152,0.391,5.996,1.171
		c1.844,0.781,3.438,1.851,4.785,3.21c1.346,1.36,2.402,2.961,3.169,4.804c0.767,1.844,1.15,3.815,1.15,5.915
		s-0.383,4.071-1.15,5.915s-1.824,3.445-3.169,4.805c-1.346,1.359-2.941,2.429-4.785,3.21C90.792,162.79,88.793,163.18,86.64,163.18
		z M86.64,158.013c1.346,0,2.604-0.243,3.775-0.728s2.193-1.156,3.068-2.019c0.875-0.861,1.561-1.903,2.059-3.129
		c0.498-1.225,0.747-2.577,0.747-4.058s-0.25-2.833-0.747-4.058c-0.499-1.225-1.185-2.268-2.059-3.129
		c-0.875-0.861-1.897-1.534-3.068-2.019s-2.43-0.727-3.775-0.727c-1.346,0-2.604,0.242-3.775,0.727s-2.194,1.157-3.068,2.019
		c-0.875,0.861-1.562,1.904-2.059,3.129c-0.499,1.225-0.747,2.577-0.747,4.058s0.249,2.833,0.747,4.058
		c0.498,1.226,1.184,2.268,2.059,3.129c0.875,0.862,1.897,1.534,3.068,2.019S85.293,158.013,86.64,158.013z"/>
</g>
<g>
	<path fill="#41B883" d="M150.32,126.286h13.148l-32.875,56.712l-32.875-56.712h12.984h12.164l7.727,13.151l7.563-13.151H150.32z"/>
	<path fill="#F42A68" d="M97.719,126.286l32.875,56.712l32.875-56.712H150.32l-19.727,34.027l-19.891-34.027H97.719z"/>
	<path fill="#93D8D0" d="M110.703,126.286l19.891,34.191l19.727-34.191h-12.164l-7.563,13.151l-7.727-13.151H110.703z"/>
</g>
</svg>
